<?xml version="1.0" encoding="UTF-8"?>
<svg version="1.1" xmlns="http://www.w3.org/2000/svg" width="324" height="66">
<path d="M0 0 C106.92 0 213.84 0 324 0 C324 21.78 324 43.56 324 66 C217.08 66 110.16 66 0 66 C0 44.22 0 22.44 0 0 Z " fill="#FAFAFB" transform="translate(0,0)"/>
<path d="M0 0 C2.77950758 0.4946067 5.50089676 1.05596797 8.25 1.6875 C9.06831299 1.87248047 9.88662598 2.05746094 10.72973633 2.24804688 C16.48813629 3.57894727 22.11569107 5.17123293 27.7421875 6.984375 C33.7700549 8.86356627 39.89016356 10.41127351 46 12 C46.18100177 16.36343549 45.65512115 19.68900985 44.25 23.8125 C42.55732093 29.04604836 41.16070937 34.26810448 39.9375 39.625 C38.45011399 46.13158467 36.83042414 52.57964868 35 59 C29.8270894 58.37277616 24.9448325 57.26199099 19.9375 55.8125 C18.36606552 55.36655238 16.79444136 54.92127273 15.22265625 54.4765625 C14.38879395 54.23969727 13.55493164 54.00283203 12.69580078 53.75878906 C7.76405685 52.37064741 2.8189477 51.03139612 -2.125 49.6875 C-3.103479 49.42106689 -4.08195801 49.15463379 -5.09008789 48.88012695 C-7.3932773 48.25299544 -9.69658127 47.62628859 -12 47 C-10.80135741 38.53064378 -8.87946562 30.41082894 -6.59277344 22.17431641 C-5.92906912 19.73982273 -5.29445288 17.29879673 -4.6640625 14.85546875 C-4.43952393 13.98736572 -4.21498535 13.1192627 -3.98364258 12.22485352 C-3.54123062 10.51105035 -3.10091378 8.79670477 -2.6628418 7.08178711 C-1.11125974 1.11125974 -1.11125974 1.11125974 0 0 Z " fill="#3D3E40" transform="translate(63,0)"/>
<path d="M0 0 C5.93713984 4.08829366 9.54870819 9.99852847 11.671875 16.83984375 C12.93615399 24.88908665 10.73068422 31.87908398 6.671875 38.83984375 C1.75436618 44.662668 -3.96873153 48.3712616 -11.5625 49.1875 C-19.38524826 49.51484676 -25.20983204 48.92472062 -31.328125 43.83984375 C-36.78497298 38.60997039 -40.86992406 34.1035241 -41.69921875 26.38671875 C-41.86200683 17.07907098 -40.95969247 10.87630304 -34.49609375 3.84765625 C-24.24308811 -5.89977712 -12.32632899 -6.78586764 0 0 Z " fill="#3E3F40" transform="translate(254.328125,7.16015625)"/>
<path d="M0 0 C5.259375 -0.0825 10.51875 -0.165 15.9375 -0.25 C17.578396 -0.28641602 19.21929199 -0.32283203 20.90991211 -0.36035156 C35.80970876 -0.47333235 35.80970876 -0.47333235 42 4 C44.81458072 7.75277429 45.52535121 11.19812195 45.37109375 15.8984375 C44.71202471 19.63084956 42.92316005 22.77183848 41 26 C41.9590625 27.175625 41.9590625 27.175625 42.9375 28.375 C46.01293036 32.2891841 46.39879637 34.7285422 46.3515625 39.609375 C45.77683918 43.51749358 43.83439039 46.30732913 41 49 C37.15300794 51.64901469 32.997644 51.2542254 28.515625 51.1953125 C27.7922998 51.19329834 27.06897461 51.19128418 26.32373047 51.18920898 C23.63242209 51.17877756 20.9412044 51.15085496 18.25 51.125 C12.2275 51.08375 6.205 51.0425 0 51 C0 34.17 0 17.34 0 0 Z " fill="#3D3E3F" transform="translate(117,4)"/>
<path d="M0 0 C5.259375 -0.0825 10.51875 -0.165 15.9375 -0.25 C17.578396 -0.28641602 19.21929199 -0.32283203 20.90991211 -0.36035156 C35.5746992 -0.47155034 35.5746992 -0.47155034 42 4 C46.5377295 8.76461597 47.1912371 11.74009672 47.3125 18.25 C47.36857422 20.20679688 47.36857422 20.20679688 47.42578125 22.203125 C46.93549926 26.57518095 45.76868372 28.62769334 43 32 C42.01 32.66 41.02 33.32 40 34 C41.35284811 38.79646149 43.46712974 42.78228985 45.9765625 47.046875 C47 49 47 49 47 51 C41.39 51 35.78 51 30 51 C29.01 48.875625 28.02 46.75125 27 44.5625 C24.7515871 39.94490866 24.7515871 39.94490866 20.75390625 36.9140625 C18.33540672 36.59411941 18.33540672 36.59411941 15 37 C15 41.62 15 46.24 15 51 C10.05 51 5.1 51 0 51 C0 34.17 0 17.34 0 0 Z " fill="#3C3D3E" transform="translate(0,4)"/>
<path d="M0 0 C12.53859964 -1.4467615 12.53859964 -1.4467615 18 0 C21.87101459 3.474769 23.97539028 7.24287507 26 12 C29.30031779 8.11033975 31.38863297 4.5698923 34 0 C39.94 0 45.88 0 52 0 C51.08654672 3.65381312 50.28873409 5.35232299 48.2421875 8.37109375 C47.42814453 9.60375977 47.42814453 9.60375977 46.59765625 10.86132812 C45.4485997 12.57970182 44.29232154 14.29326826 43.12890625 16.00195312 C42.31873047 17.23655273 42.31873047 17.23655273 41.4921875 18.49609375 C40.99058105 19.24044678 40.48897461 19.9847998 39.97216797 20.75170898 C38.70396165 23.68463514 38.9916665 24.98942487 40 28 C41.38809421 30.63425376 41.38809421 30.63425376 43.16015625 33.265625 C43.78857422 34.23757812 44.41699219 35.20953125 45.06445312 36.2109375 C45.72380859 37.21382812 46.38316406 38.21671875 47.0625 39.25 C48.36766822 41.25404838 49.67115207 43.25919512 50.97265625 45.265625 C51.55281494 46.15024414 52.13297363 47.03486328 52.73071289 47.94628906 C54 50 54 50 54 51 C37.54613327 52.94062743 37.54613327 52.94062743 33.34716797 49.74023438 C30.44353622 46.22107137 28.80891866 42.16549158 27 38 C26.34 37.67 25.68 37.34 25 37 C24.71125 37.72574219 24.4225 38.45148437 24.125 39.19921875 C23.75375 40.12347656 23.3825 41.04773437 23 42 C22.566875 43.21623047 22.566875 43.21623047 22.125 44.45703125 C20.70075742 47.43903915 19.67994925 49.00918056 17 51 C11.09856797 52.16843274 4.94780694 51.50500248 -1 51 C0.2990162 47.43271072 1.84627761 44.56420348 4.07421875 41.49609375 C4.95110352 40.26149414 4.95110352 40.26149414 5.84570312 39.00195312 C7.0794135 37.28417823 8.31906662 35.57065674 9.56445312 33.86132812 C10.43553711 32.62866211 10.43553711 32.62866211 11.32421875 31.37109375 C11.86135498 30.62786865 12.39849121 29.88464355 12.9519043 29.11889648 C14.20195561 27.07486725 14.20195561 27.07486725 13.75585938 24.89550781 C10.74360309 17.34151627 5.71769179 10.37300187 1.06640625 3.7421875 C0 2 0 2 0 0 Z " fill="#3D3E40" transform="translate(266,4)"/>
<path d="M0 0 C4.95 0 9.9 0 15 0 C15 11.88 15 23.76 15 36 C22.26 36 29.52 36 37 36 C37 40.95 37 45.9 37 51 C24.79 51 12.58 51 0 51 C0 34.17 0 17.34 0 0 Z " fill="#3B3C3E" transform="translate(171,4)"/>
<path d="M0 0 C2.82424288 2.19022918 4.41508603 3.83017207 6 7 C6.12964531 11.71353319 5.62480152 15.11792727 2.875 19 C-0.62569564 21.43526653 -2.74104703 22 -7 22 C-10.84355527 20.74345308 -12.54978542 19.59090663 -15 16.375 C-16.36990066 11.75158529 -15.68316017 8.45741413 -14 4 C-10.91707526 -1.2666631 -5.51988341 -1.06289017 0 0 Z " fill="#FAFAFA" transform="translate(244,19)"/>
<path d="M0 0 C1.41750563 0.11509661 2.83401169 0.24253658 4.25 0.375 C5.03890625 0.44460937 5.8278125 0.51421875 6.640625 0.5859375 C9 1 9 1 13 3 C12.34 6.96 11.68 10.92 11 15 C7.36804504 16.21065165 5.93468371 15.62784815 2.3125 14.5625 C1.31863281 14.27503906 0.32476562 13.98757812 -0.69921875 13.69140625 C-1.45847656 13.46324219 -2.21773438 13.23507813 -3 13 C-2.45144652 8.428721 -1.58255197 4.32564205 0 0 Z " fill="#F4F4F5" transform="translate(75,22)"/>
<path d="M0 0 C2.27024968 -0.08097324 4.54132075 -0.13917704 6.8125 -0.1875 C8.07707031 -0.22230469 9.34164063 -0.25710937 10.64453125 -0.29296875 C14 0 14 0 15.921875 1.35546875 C17.48683812 3.74260453 17.48810985 5.21080088 17 8 C14.58539523 10.47335428 13.24404363 10.9778946 9.765625 11.29296875 C8.60546875 11.25816406 7.4453125 11.22335938 6.25 11.1875 C5.07953125 11.16042969 3.9090625 11.13335937 2.703125 11.10546875 C1.81109375 11.07066406 0.9190625 11.03585938 0 11 C0 7.37 0 3.74 0 0 Z " fill="#E7E8E8" transform="translate(15,17)"/>
<path d="M0 0 C2.12472576 -0.05386629 4.24983652 -0.09273071 6.375 -0.125 C7.55835938 -0.14820313 8.74171875 -0.17140625 9.9609375 -0.1953125 C13 0 13 0 15 2 C14.67 3.98 14.34 5.96 14 8 C9.38 8 4.76 8 0 8 C0 5.36 0 2.72 0 0 Z " fill="#F6F6F7" transform="translate(132,35)"/>
<path d="M0 0 C2.14576637 -0.02685938 4.29162645 -0.04633088 6.4375 -0.0625 C7.63246094 -0.07410156 8.82742187 -0.08570312 10.05859375 -0.09765625 C13 0 13 0 14 1 C14.125 3.5 14.125 3.5 14 6 C13 7 13 7 10.05859375 7.09765625 C8.26615234 7.08025391 8.26615234 7.08025391 6.4375 7.0625 C4.64119141 7.04896484 4.64119141 7.04896484 2.80859375 7.03515625 C1.88175781 7.02355469 0.95492187 7.01195312 0 7 C0 4.69 0 2.38 0 0 Z " fill="#FAFBFB" transform="translate(132,17)"/>
</svg>
