<?xml version="1.0" encoding="UTF-8"?>
<svg version="1.1" xmlns="http://www.w3.org/2000/svg" width="173" height="36">
<path d="M0 0 C57.09 0 114.18 0 173 0 C173 11.88 173 23.76 173 36 C115.91 36 58.82 36 0 36 C0 24.12 0 12.24 0 0 Z " fill="#1B1C21" transform="translate(0,0)"/>
<path d="M0 0 C5.69305433 1.23876645 11.35370013 2.56276003 17 4 C16.71465784 5.87597289 16.42141506 7.7507448 16.125 9.625 C15.96257813 10.66914063 15.80015625 11.71328125 15.6328125 12.7890625 C15 16 15 16 13 22 C7.72 20.68 2.44 19.36 -3 18 C-4.04274465 12.78627676 -3.68754416 11.06263248 -2.0625 6.1875 C-1.68222656 5.02605469 -1.30195312 3.86460938 -0.91015625 2.66796875 C-0.60980469 1.78753906 -0.30945312 0.90710937 0 0 Z " fill="#F2F2F2" transform="translate(43,9)"/>
<path d="M0 0 C3.45331812 1.23700948 5.23470575 3.461599 6.83203125 6.65625 C7.25109864 10.42785651 7.14403949 12.16595134 5.08203125 15.40625 C1.63203125 18.85625 1.63203125 18.85625 -1.16796875 19.65625 C-5.25460997 19.58327426 -7.42052021 19.26954111 -10.60546875 16.65625 C-12.73724349 12.56324249 -13.22780118 9.17276666 -12.16796875 4.65625 C-9.24039319 -0.06633539 -5.17266248 -1.02859827 0 0 Z " fill="#F2F3F3" transform="translate(111.16796875,10.34375)"/>
<path d="M0 0 C13.75 -0.125 13.75 -0.125 16 1 C15.979375 2.175625 15.95875 3.35125 15.9375 4.5625 C15.93052739 8.47413467 16.35749657 12.14497944 17 16 C13.2632157 18.49118953 11.25548181 18.2065226 6.8125 18.125 C4.564375 18.08375 2.31625 18.0425 0 18 C0 12.06 0 6.12 0 0 Z " fill="#E4E4E5" transform="translate(63,11)"/>
<path d="M0 0 C2.43375 -0.04125 4.8675 -0.0825 7.375 -0.125 C8.13989746 -0.14320801 8.90479492 -0.16141602 9.69287109 -0.18017578 C11.46287275 -0.1948117 13.23272455 -0.09928514 15 0 C17.60704898 2.60704898 17.23905333 4.47338241 17.265625 8.02734375 C17 10 17 10 15 13 C15.80161791 15.67145537 15.80161791 15.67145537 17 18 C15.02 18 13.04 18 11 18 C10.34 16.35 9.68 14.7 9 13 C8.01 13 7.02 13 6 13 C6 14.65 6 16.3 6 18 C4.02 18 2.04 18 0 18 C0 12.06 0 6.12 0 0 Z " fill="#F8F8F8" transform="translate(20,11)"/>
<path d="M0 0 C5.53846154 -0.36923077 5.53846154 -0.36923077 7.875 1.5 C8.24625 1.995 8.6175 2.49 9 3 C9.66 2.01 10.32 1.02 11 0 C14.625 -0.1875 14.625 -0.1875 18 0 C17.319375 1.0725 16.63875 2.145 15.9375 3.25 C14.33292485 6.01153457 14.33292485 6.01153457 14.0625 9.125 C15.24833699 11.49667399 16.6274528 13.73231332 18 16 C18 16.66 18 17.32 18 18 C15.1875 18.25 15.1875 18.25 12 18 C10.125 16 10.125 16 9 14 C8.649375 14.66 8.29875 15.32 7.9375 16 C6 18 6 18 2.3125 18.25 C1.219375 18.1675 0.12625 18.085 -1 18 C0.66666667 14.66666667 2.33333333 11.33333333 4 8 C3.01 6.576875 3.01 6.576875 2 5.125 C0 2 0 2 0 0 Z " fill="#F6F6F7" transform="translate(119,11)"/>
<path d="M0 0 C1.65 0 3.3 0 5 0 C5 4.29 5 8.58 5 13 C7.97 13 10.94 13 14 13 C14 14.65 14 16.3 14 18 C9.38 18 4.76 18 0 18 C0 12.06 0 6.12 0 0 Z " fill="#FCFDFD" transform="translate(83,11)"/>
<path d="M0 0 C0 0.33 0 0.66 0 1 C-1.98 1 -3.96 1 -6 1 C-4.35 3.97 -2.7 6.94 -1 10 C-5.30769231 16.76923077 -5.30769231 16.76923077 -8.8125 17.9375 C-9.534375 17.958125 -10.25625 17.97875 -11 18 C-10.505 17.29875 -10.01 16.5975 -9.5 15.875 C-7.75861351 12.53734257 -7.61278026 10.71730955 -8 7 C-8.91257306 4.21433941 -8.91257306 4.21433941 -10 2 C-6.3558226 -0.4294516 -4.28758728 -0.16179575 0 0 Z " fill="#232227" transform="translate(125,10)"/>
<path d="M0 0 C0.33 0 0.66 0 1 0 C1 4.95 1 9.9 1 15 C0.01 15 -0.98 15 -2 15 C-3.512545 9.83955235 -4.33500455 6.34001821 -3 1 C-2.01 1.33 -1.02 1.66 0 2 C0 1.34 0 0.68 0 0 Z M-3 17 C-3.66 17.66 -4.32 18.32 -5 19 C-8.2578125 18.9765625 -8.2578125 18.9765625 -12.125 18.625 C-13.40632813 18.51414062 -14.68765625 18.40328125 -16.0078125 18.2890625 C-16.99523437 18.19367187 -17.98265625 18.09828125 -19 18 C-19 17.67 -19 17.34 -19 17 C-16.7089095 16.80558632 -14.41709663 16.61966865 -12.125 16.4375 C-10.21074219 16.28087891 -10.21074219 16.28087891 -8.2578125 16.12109375 C-5 16 -5 16 -3 17 Z " fill="#333236" transform="translate(82,12)"/>
<path d="M0 0 C3.125 0.375 3.125 0.375 6 1 C6.125 3.375 6.125 3.375 6 6 C5.34 6.66 4.68 7.32 4 8 C1.375 7.625 1.375 7.625 -1 7 C-1.625 4.625 -1.625 4.625 -2 2 C-1.34 1.34 -0.68 0.68 0 0 Z " fill="#28292D" transform="translate(106,16)"/>
<path d="M0 0 C0.99 0.33 1.98 0.66 3 1 C3.16264275 2.74690364 3.27869612 4.49818649 3.375 6.25 C3.44460937 7.22453125 3.51421875 8.1990625 3.5859375 9.203125 C3 12 3 12 -3 16 C-2.01 10.72 -1.02 5.44 0 0 Z " fill="#262529" transform="translate(60,11)"/>
<path d="M0 0 C1.98 0 3.96 0 6 0 C6 4.29 6 8.58 6 13 C9.465 12.505 9.465 12.505 13 12 C13.66 10.35 14.32 8.7 15 7 C15.33 7 15.66 7 16 7 C16.33 9.97 16.66 12.94 17 16 C16.01 16 15.02 16 14 16 C14 15.34 14 14.68 14 14 C11.03 14 8.06 14 5 14 C5 9.71 5 5.42 5 1 C3.35 1 1.7 1 0 1 C0 0.67 0 0.34 0 0 Z " fill="#6B6C6E" transform="translate(83,10)"/>
<path d="M0 0 C2.475 0.495 2.475 0.495 5 1 C6 4 6 4 5.0625 6.1875 C4.5365625 7.0846875 4.5365625 7.0846875 4 8 C4 7.34 4 6.68 4 6 C3.34 6 2.68 6 2 6 C1.67 6.66 1.34 7.32 1 8 C0.67 5.36 0.34 2.72 0 0 Z " fill="#37363B" transform="translate(36,12)"/>
<path d="M0 0 C0 0.33 0 0.66 0 1 C-1.98 1 -3.96 1 -6 1 C-5.34 2.65 -4.68 4.3 -4 6 C-5.32 6.33 -6.64 6.66 -8 7 C-8.66 5.35 -9.32 3.7 -10 2 C-6.3558226 -0.4294516 -4.28758728 -0.16179575 0 0 Z " fill="#414143" transform="translate(125,10)"/>
<path d="M0 0 C1.65 0 3.3 0 5 0 C5.33 1.32 5.66 2.64 6 4 C4.35 4.33 2.7 4.66 1 5 C0.67 3.35 0.34 1.7 0 0 Z " fill="#1F2022" transform="translate(105,19)"/>
<path d="M0 0 C1.65 0 3.3 0 5 0 C5 1.32 5 2.64 5 4 C3.35 4 1.7 4 0 4 C0 2.68 0 1.36 0 0 Z " fill="#3A393D" transform="translate(26,15)"/>
<path d="M0 0 C1.98 0.495 1.98 0.495 4 1 C3.67 2.32 3.34 3.64 3 5 C1.68 5 0.36 5 -1 5 C-0.67 3.35 -0.34 1.7 0 0 Z " fill="#202022" transform="translate(48,17)"/>
<path d="M0 0 C4.455 0.99 4.455 0.99 9 2 C5 4 5 4 2.8125 3.8125 C2.214375 3.544375 1.61625 3.27625 1 3 C0.67 2.01 0.34 1.02 0 0 Z " fill="#2A2A2D" transform="translate(42,27)"/>
<path d="M0 0 C0.33 0.99 0.66 1.98 1 3 C-1.375 4.5625 -1.375 4.5625 -4 6 C-4.66 5.67 -5.32 5.34 -6 5 C-2.25 1.125 -2.25 1.125 0 0 Z " fill="#2D2D2F" transform="translate(120,22)"/>
</svg>
