<?xml version="1.0" encoding="UTF-8"?>
<svg version="1.1" xmlns="http://www.w3.org/2000/svg" width="63" height="61">
<path d="M0 0 C20.79 0 41.58 0 63 0 C63 20.13 63 40.26 63 61 C42.21 61 21.42 61 0 61 C0 40.87 0 20.74 0 0 Z " fill="#3D3E3F" transform="translate(0,0)"/>
<path d="M0 0 C16.5 0 33 0 50 0 C50 20.13 50 40.26 50 61 C29.21 61 8.42 61 -13 61 C-13 55.72 -13 50.44 -13 45 C-6.25677603 45 -6.25677603 45 -2.6015625 46.171875 C-1.39862549 46.54759644 -1.39862549 46.54759644 -0.17138672 46.9309082 C0.6689209 47.2012085 1.50922852 47.47150879 2.375 47.75 C10.20120995 50.19180641 18.03408926 52.33710177 26.0078125 54.23828125 C29 55 29 55 31 56 C31.10957031 55.41734375 31.21914063 54.8346875 31.33203125 54.234375 C34.15054075 39.66061856 38.2403927 25.35254256 42 11 C41.43079834 10.94811523 40.86159668 10.89623047 40.27514648 10.84277344 C35.38645785 10.35548469 30.80807605 9.57636948 26.0625 8.25 C24.7940625 7.899375 23.525625 7.54875 22.21875 7.1875 C21.54585937 6.99800781 20.87296875 6.80851563 20.1796875 6.61328125 C17.79881231 5.94339343 15.41528447 5.28355273 13.03125 4.625 C8.68558887 3.42345033 4.34229542 2.21365416 0 1 C0 0.67 0 0.34 0 0 Z " fill="#FCFCFC" transform="translate(13,0)"/>
<path d="M0 0 C3.96 0 7.92 0 12 0 C9.53308042 10.14065713 7.02495445 20.20100286 3.84765625 30.14453125 C2.59225799 34.37354567 1.74536393 38.65531289 1 43 C0.67 43 0.34 43 0 43 C0 28.81 0 14.62 0 0 Z " fill="#FAFAFA" transform="translate(0,0)"/>
<path d="M0 0 C5.94 1.485 5.94 1.485 12 3 C11 11.57142857 11 11.57142857 10 15 C5.17639811 15.19294408 1.50353262 14.75747614 -3 13 C-2.68817931 11.58318366 -2.37551263 10.16655349 -2.0625 8.75 C-1.88847656 7.96109375 -1.71445312 7.1721875 -1.53515625 6.359375 C-1.0527843 4.23271327 -0.52889301 2.11557202 0 0 Z " fill="#F2F3F3" transform="translate(23,20)"/>
<path d="M0 0 C1.32 0.33 2.64 0.66 4 1 C3.25 3.4375 3.25 3.4375 2 6 C-0.125 6.8125 -0.125 6.8125 -2 7 C-1.34 4.69 -0.68 2.38 0 0 Z " fill="#454648" transform="translate(2,38)"/>
<path d="M0 0 C2.0625 0.4375 2.0625 0.4375 4 1 C3.25 3.4375 3.25 3.4375 2 6 C-0.125 6.8125 -0.125 6.8125 -2 7 C-1.125 1.125 -1.125 1.125 0 0 Z " fill="#47484A" transform="translate(12,0)"/>
<path d="M0 0 C0.99 0 1.98 0 3 0 C3 1.65 3 3.3 3 5 C1.35 4.67 -0.3 4.34 -2 4 C-1.34 2.68 -0.68 1.36 0 0 Z " fill="#545454" transform="translate(52,11)"/>
</svg>
